# xmcd
#
# Track frame offsets: 
#        150
#        10669
#        22941
#        35899
#        46177
#        57351
#        68773
#        81898
#        94362
#        108338
#        121299
#        136320
#
# Disc length: 1993 seconds
#
# Revision: 0
# Processed by: cddbd v1.5.2PL0 Copyright (c) Steve Scherf et al.
# Submitted via: ExactAudioCopyFreeDBPlugin 1.0
#
DISCID=9907c70c
DTITLE=Various Artist - The Best Of Rhythm and Blues
DYEAR=2012
DGENRE=Blues
TTITLE0=Louis Prima and Orchestra - Bourbon Street Blues
TTITLE1=Roy Byrd - Her Mind Is Gone
TTITLE2=Red Foley - Chattanooga Shoe Shine Boy
TTITLE3=Tennessee Ernie Ford - Shotgun Boogie
TTITLE4=Eddie Cleanhead Vinson - Some Women Do
TTITLE5=Big Joe Turner - Howlin' Winds
TTITLE6=Ella Mae Morse - Forty Cups Of Coffee
TTITLE7=Sammy Price - I Know How To Do It
TTITLE8=Tommy Dorsey - Mr Freddie Blues
TTITLE9=Louis Jordan - Choo Choo Ch'Boogie
TTITLE10=B B King - B B's Boogie
TTITLE11=Ray Charles - Alone In This City
EXTD=
EXTT0=
EXTT1=
EXTT2=
EXTT3=
EXTT4=
EXTT5=
EXTT6=
EXTT7=
EXTT8=
EXTT9=
EXTT10=
EXTT11=
PLAYORDER=
